# MagicaVoxel @ Ephtracy

# group
g portail

# material
mtllib portail.mtl
usemtl palette

# normals
vn -1 0 0
vn 1 0 0
vn 0 0 1
vn 0 0 -1
vn 0 -1 0
vn 0 1 0

# texcoords
vt 0.0136719 0.5
vt 0.0175781 0.5
vt 0.306641 0.5
vt 0.943359 0.5
vt 0.947266 0.5
vt 0.951172 0.5
vt 0.955078 0.5
vt 0.958984 0.5
vt 0.994141 0.5

# verts
v -2 1 18
v -2 1 13
v -2 1 -13
v -2 1 -18
v -2 14 17
v -2 14 14
v -2 14 -14
v -2 14 -17
v -2 30 17
v -2 30 14
v -2 30 -14
v -2 30 -17
v -2 31 13
v -2 31 11
v -2 31 -11
v -2 31 -13
v -2 32 18
v -2 32 17
v -2 32 16
v -2 32 11
v -2 32 10
v -2 32 -10
v -2 32 -11
v -2 32 -16
v -2 32 -17
v -2 32 -18
v -2 33 17
v -2 33 16
v -2 33 15
v -2 33 11
v -2 33 10
v -2 33 -10
v -2 33 -11
v -2 33 -15
v -2 33 -16
v -2 33 -17
v -2 34 16
v -2 34 15
v -2 34 14
v -2 34 10
v -2 34 9
v -2 34 8
v -2 34 6
v -2 34 4
v -2 34 2
v -2 34 -0
v -2 34 -2
v -2 34 -4
v -2 34 -6
v -2 34 -8
v -2 34 -9
v -2 34 -10
v -2 34 -14
v -2 34 -15
v -2 34 -16
v -2 35 15
v -2 35 14
v -2 35 13
v -2 35 9
v -2 35 -9
v -2 35 -13
v -2 35 -14
v -2 35 -15
v -2 36 14
v -2 36 13
v -2 36 12
v -2 36 9
v -2 36 8
v -2 36 6
v -2 36 4
v -2 36 2
v -2 36 -0
v -2 36 -2
v -2 36 -4
v -2 36 -6
v -2 36 -8
v -2 36 -9
v -2 36 -11
v -2 36 -12
v -2 36 -13
v -2 36 -14
v -2 37 13
v -2 37 12
v -2 37 11
v -2 37 9
v -2 37 -11
v -2 37 -12
v -2 37 -13
v -2 38 12
v -2 38 11
v -2 38 9
v -2 38 8
v -2 38 6
v -2 38 4
v -2 38 2
v -2 38 -0
v -2 38 -2
v -2 38 -4
v -2 38 -6
v -2 38 -8
v -2 38 -9
v -2 38 -11
v -2 38 -12
v -2 39 11
v -2 39 -11
v 1 13 16
v 1 13 15
v 1 13 -15
v 1 13 -16
v 1 30 16
v 1 30 15
v 1 30 -15
v 1 30 -16
v 1 33 13
v 1 33 12
v 1 33 -12
v 1 33 -13
v 1 34 13
v 1 34 12
v 1 34 11
v 1 34 -11
v 1 34 -12
v 1 34 -13
v 1 35 12
v 1 35 11
v 1 35 10
v 1 35 -10
v 1 35 -11
v 1 35 -12
v 1 36 11
v 1 36 10
v 1 36 -10
v 1 36 -11
v 1 37 10
v 1 37 9
v 1 37 8
v 1 37 6
v 1 37 4
v 1 37 2
v 1 37 -0
v 1 37 -2
v 1 37 -4
v 1 37 -6
v 1 37 -8
v 1 37 -9
v 1 37 -10
v 2 1 17
v 2 1 14
v 2 1 -14
v 2 1 -17
v 2 13 17
v 2 13 14
v 2 13 -14
v 2 13 -17
v -1 1 17
v -1 1 14
v -1 1 -14
v -1 1 -17
v -1 13 17
v -1 13 14
v -1 13 -14
v -1 13 -17
v 0 13 16
v 0 13 15
v 0 13 -15
v 0 13 -16
v 0 30 16
v 0 30 15
v 0 30 -15
v 0 30 -16
v 0 33 13
v 0 33 12
v 0 33 -12
v 0 33 -13
v 0 34 13
v 0 34 12
v 0 34 11
v 0 34 -11
v 0 34 -12
v 0 34 -13
v 0 35 12
v 0 35 11
v 0 35 10
v 0 35 -10
v 0 35 -11
v 0 35 -12
v 0 36 11
v 0 36 10
v 0 36 -10
v 0 36 -11
v 0 37 10
v 0 37 9
v 0 37 8
v 0 37 6
v 0 37 4
v 0 37 2
v 0 37 -0
v 0 37 -2
v 0 37 -4
v 0 37 -6
v 0 37 -8
v 0 37 -9
v 0 37 -10
v 3 1 18
v 3 1 13
v 3 1 -13
v 3 1 -18
v 3 14 17
v 3 14 14
v 3 14 -14
v 3 14 -17
v 3 15 16
v 3 15 15
v 3 15 -15
v 3 15 -16
v 3 29 16
v 3 29 15
v 3 29 -15
v 3 29 -16
v 3 30 17
v 3 30 14
v 3 30 -14
v 3 30 -17
v 3 31 13
v 3 31 11
v 3 31 -11
v 3 31 -13
v 3 32 18
v 3 32 17
v 3 32 16
v 3 32 11
v 3 32 10
v 3 32 -10
v 3 32 -11
v 3 32 -16
v 3 32 -17
v 3 32 -18
v 3 33 17
v 3 33 16
v 3 33 15
v 3 33 11
v 3 33 10
v 3 33 -10
v 3 33 -11
v 3 33 -15
v 3 33 -16
v 3 33 -17
v 3 34 16
v 3 34 15
v 3 34 14
v 3 34 10
v 3 34 9
v 3 34 8
v 3 34 6
v 3 34 4
v 3 34 2
v 3 34 -0
v 3 34 -2
v 3 34 -4
v 3 34 -6
v 3 34 -8
v 3 34 -9
v 3 34 -10
v 3 34 -14
v 3 34 -15
v 3 34 -16
v 3 35 15
v 3 35 14
v 3 35 13
v 3 35 9
v 3 35 -9
v 3 35 -13
v 3 35 -14
v 3 35 -15
v 3 36 14
v 3 36 13
v 3 36 12
v 3 36 9
v 3 36 8
v 3 36 6
v 3 36 4
v 3 36 2
v 3 36 -0
v 3 36 -2
v 3 36 -4
v 3 36 -6
v 3 36 -8
v 3 36 -9
v 3 36 -11
v 3 36 -12
v 3 36 -13
v 3 36 -14
v 3 37 13
v 3 37 12
v 3 37 11
v 3 37 9
v 3 37 -11
v 3 37 -12
v 3 37 -13
v 3 38 12
v 3 38 11
v 3 38 9
v 3 38 8
v 3 38 6
v 3 38 4
v 3 38 2
v 3 38 -0
v 3 38 -2
v 3 38 -4
v 3 38 -6
v 3 38 -8
v 3 38 -9
v 3 38 -11
v 3 38 -12
v 3 39 11
v 3 39 -11
v -2 1 18
v -2 32 18
v -1 14 18
v -1 30 18
v 0 15 18
v 0 29 18
v 1 15 18
v 1 29 18
v 2 14 18
v 2 30 18
v 3 1 18
v 3 32 18
v -2 32 17
v -2 33 17
v 3 32 17
v 3 33 17
v -2 33 16
v -2 34 16
v 3 33 16
v 3 34 16
v -2 34 15
v -2 35 15
v 0 13 15
v 0 30 15
v 1 13 15
v 1 30 15
v 3 34 15
v 3 35 15
v -2 35 14
v -2 36 14
v -1 1 14
v -1 13 14
v 2 1 14
v 2 13 14
v 3 35 14
v 3 36 14
v -2 36 13
v -2 37 13
v 3 36 13
v 3 37 13
v -2 37 12
v -2 38 12
v 0 33 12
v 0 34 12
v 1 33 12
v 1 34 12
v 3 37 12
v 3 38 12
v -2 38 11
v -2 39 11
v 0 34 11
v 0 35 11
v 1 34 11
v 1 35 11
v 3 38 11
v 3 39 11
v 0 35 10
v 0 36 10
v 1 35 10
v 1 36 10
v -2 32 -10
v -2 33 -10
v 0 36 -10
v 0 37 -10
v 1 36 -10
v 1 37 -10
v 3 32 -10
v 3 33 -10
v -2 31 -11
v -2 32 -11
v 0 35 -11
v 0 36 -11
v 1 35 -11
v 1 36 -11
v 3 31 -11
v 3 32 -11
v 0 34 -12
v 0 35 -12
v 1 34 -12
v 1 35 -12
v -2 1 -13
v -2 31 -13
v -1 14 -13
v -1 30 -13
v 0 33 -13
v 0 34 -13
v 1 33 -13
v 1 34 -13
v 2 14 -13
v 2 30 -13
v 3 1 -13
v 3 31 -13
v 0 13 -16
v 0 30 -16
v 1 13 -16
v 1 30 -16
v -1 1 -17
v -1 13 -17
v 2 1 -17
v 2 13 -17
v -1 1 17
v -1 13 17
v 2 1 17
v 2 13 17
v 0 13 16
v 0 30 16
v 1 13 16
v 1 30 16
v -2 1 13
v -2 31 13
v -1 14 13
v -1 30 13
v 0 33 13
v 0 34 13
v 1 33 13
v 1 34 13
v 2 14 13
v 2 30 13
v 3 1 13
v 3 31 13
v 0 34 12
v 0 35 12
v 1 34 12
v 1 35 12
v -2 31 11
v -2 32 11
v 0 35 11
v 0 36 11
v 1 35 11
v 1 36 11
v 3 31 11
v 3 32 11
v -2 32 10
v -2 33 10
v 0 36 10
v 0 37 10
v 1 36 10
v 1 37 10
v 3 32 10
v 3 33 10
v 0 35 -10
v 0 36 -10
v 1 35 -10
v 1 36 -10
v -2 38 -11
v -2 39 -11
v 0 34 -11
v 0 35 -11
v 1 34 -11
v 1 35 -11
v 3 38 -11
v 3 39 -11
v -2 37 -12
v -2 38 -12
v 0 33 -12
v 0 34 -12
v 1 33 -12
v 1 34 -12
v 3 37 -12
v 3 38 -12
v -2 36 -13
v -2 37 -13
v 3 36 -13
v 3 37 -13
v -2 35 -14
v -2 36 -14
v -1 1 -14
v -1 13 -14
v 2 1 -14
v 2 13 -14
v 3 35 -14
v 3 36 -14
v -2 34 -15
v -2 35 -15
v 0 13 -15
v 0 30 -15
v 1 13 -15
v 1 30 -15
v 3 34 -15
v 3 35 -15
v -2 33 -16
v -2 34 -16
v 3 33 -16
v 3 34 -16
v -2 32 -17
v -2 33 -17
v 3 32 -17
v 3 33 -17
v -2 1 -18
v -2 32 -18
v -1 14 -18
v -1 30 -18
v 0 15 -18
v 0 29 -18
v 1 15 -18
v 1 29 -18
v 2 14 -18
v 2 30 -18
v 3 1 -18
v 3 32 -18
v -2 1 18
v 3 1 18
v -1 1 17
v 2 1 17
v -1 1 14
v 2 1 14
v -2 1 13
v 3 1 13
v -2 1 -13
v 3 1 -13
v -1 1 -14
v 2 1 -14
v -1 1 -17
v 2 1 -17
v -2 1 -18
v 3 1 -18
v -1 13 17
v 2 13 17
v 0 13 16
v 1 13 16
v 0 13 15
v 1 13 15
v -1 13 14
v 2 13 14
v -1 13 -14
v 2 13 -14
v 0 13 -15
v 1 13 -15
v 0 13 -16
v 1 13 -16
v -1 13 -17
v 2 13 -17
v 0 30 16
v 1 30 16
v 0 30 15
v 1 30 15
v 0 30 -15
v 1 30 -15
v 0 30 -16
v 1 30 -16
v -2 31 13
v 3 31 13
v -2 31 11
v 3 31 11
v -2 31 -11
v 3 31 -11
v -2 31 -13
v 3 31 -13
v -2 32 11
v 3 32 11
v -2 32 10
v 3 32 10
v -2 32 -10
v 3 32 -10
v -2 32 -11
v 3 32 -11
v -2 33 10
v 3 33 10
v -2 33 -10
v 3 33 -10
v 0 34 13
v 1 34 13
v 0 34 12
v 1 34 12
v 0 34 -12
v 1 34 -12
v 0 34 -13
v 1 34 -13
v 0 35 12
v 1 35 12
v 0 35 11
v 1 35 11
v 0 35 -11
v 1 35 -11
v 0 35 -12
v 1 35 -12
v 0 36 11
v 1 36 11
v 0 36 10
v 1 36 10
v 0 36 -10
v 1 36 -10
v 0 36 -11
v 1 36 -11
v 0 37 10
v 1 37 10
v 0 37 9
v 1 37 9
v 0 37 8
v 1 37 8
v 0 37 6
v 1 37 6
v 0 37 4
v 1 37 4
v 0 37 2
v 1 37 2
v 0 37 -0
v 1 37 -0
v 0 37 -2
v 1 37 -2
v 0 37 -4
v 1 37 -4
v 0 37 -6
v 1 37 -6
v 0 37 -8
v 1 37 -8
v 0 37 -9
v 1 37 -9
v 0 37 -10
v 1 37 -10
v -2 32 18
v 3 32 18
v -2 32 17
v 3 32 17
v -2 32 -17
v 3 32 -17
v -2 32 -18
v 3 32 -18
v -2 33 17
v 3 33 17
v -2 33 16
v 3 33 16
v 0 33 13
v 1 33 13
v 0 33 12
v 1 33 12
v 0 33 -12
v 1 33 -12
v 0 33 -13
v 1 33 -13
v -2 33 -16
v 3 33 -16
v -2 33 -17
v 3 33 -17
v -2 34 16
v 3 34 16
v -2 34 15
v 3 34 15
v 0 34 12
v 1 34 12
v 0 34 11
v 1 34 11
v 0 34 -11
v 1 34 -11
v 0 34 -12
v 1 34 -12
v -2 34 -15
v 3 34 -15
v -2 34 -16
v 3 34 -16
v -2 35 15
v 3 35 15
v -2 35 14
v 3 35 14
v 0 35 11
v 1 35 11
v 0 35 10
v 1 35 10
v 0 35 -10
v 1 35 -10
v 0 35 -11
v 1 35 -11
v -2 35 -14
v 3 35 -14
v -2 35 -15
v 3 35 -15
v -2 36 14
v 3 36 14
v -2 36 13
v 3 36 13
v 0 36 10
v 1 36 10
v 0 36 -10
v 1 36 -10
v -2 36 -13
v 3 36 -13
v -2 36 -14
v 3 36 -14
v -2 37 13
v 3 37 13
v -2 37 12
v 3 37 12
v -2 37 -12
v 3 37 -12
v -2 37 -13
v 3 37 -13
v -2 38 12
v 3 38 12
v -2 38 11
v 3 38 11
v -2 38 -11
v 3 38 -11
v -2 38 -12
v 3 38 -12
v -2 39 11
v 3 39 11
v -2 39 -11
v 3 39 -11

# faces
f 5/7/1 2/7/1 1/7/1
f 6/7/1 2/7/1 5/7/1
f 7/7/1 4/7/1 3/7/1
f 8/7/1 4/7/1 7/7/1
f 9/7/1 5/7/1 1/7/1
f 9/4/1 6/4/1 5/4/1
f 10/7/1 2/7/1 6/7/1
f 10/4/1 6/4/1 9/4/1
f 11/4/1 8/4/1 7/4/1
f 11/7/1 7/7/1 3/7/1
f 12/7/1 4/7/1 8/7/1
f 12/4/1 8/4/1 11/4/1
f 13/7/1 2/7/1 10/7/1
f 13/7/1 10/7/1 9/7/1
f 16/7/1 11/7/1 3/7/1
f 16/7/1 12/7/1 11/7/1
f 17/7/1 9/7/1 1/7/1
f 17/7/1 14/7/1 13/7/1
f 17/7/1 13/7/1 9/7/1
f 18/7/1 14/7/1 17/7/1
f 19/7/1 14/7/1 18/7/1
f 20/7/1 14/7/1 19/7/1
f 23/7/1 16/7/1 15/7/1
f 24/7/1 12/7/1 16/7/1
f 24/7/1 16/7/1 23/7/1
f 25/7/1 4/7/1 12/7/1
f 25/7/1 12/7/1 24/7/1
f 26/7/1 4/7/1 25/7/1
f 27/7/1 19/7/1 18/7/1
f 28/5/1 20/5/1 19/5/1
f 28/7/1 19/7/1 27/7/1
f 29/5/1 20/5/1 28/5/1
f 30/7/1 21/7/1 20/7/1
f 30/5/1 20/5/1 29/5/1
f 31/7/1 21/7/1 30/7/1
f 32/7/1 23/7/1 22/7/1
f 33/5/1 24/5/1 23/5/1
f 33/7/1 23/7/1 32/7/1
f 34/5/1 24/5/1 33/5/1
f 35/7/1 25/7/1 24/7/1
f 35/5/1 24/5/1 34/5/1
f 36/7/1 25/7/1 35/7/1
f 37/7/1 29/7/1 28/7/1
f 38/1/1 31/1/1 30/1/1
f 38/7/1 29/7/1 37/7/1
f 38/1/1 30/1/1 29/1/1
f 39/1/1 31/1/1 38/1/1
f 40/7/1 32/7/1 31/7/1
f 40/1/1 31/1/1 39/1/1
f 41/7/1 32/7/1 40/7/1
f 42/7/1 32/7/1 41/7/1
f 43/7/1 32/7/1 42/7/1
f 44/7/1 32/7/1 43/7/1
f 45/7/1 32/7/1 44/7/1
f 46/7/1 32/7/1 45/7/1
f 47/7/1 32/7/1 46/7/1
f 48/7/1 32/7/1 47/7/1
f 49/7/1 32/7/1 48/7/1
f 50/7/1 32/7/1 49/7/1
f 51/7/1 32/7/1 50/7/1
f 52/1/1 34/1/1 33/1/1
f 52/7/1 32/7/1 51/7/1
f 52/1/1 33/1/1 32/1/1
f 53/1/1 34/1/1 52/1/1
f 54/7/1 35/7/1 34/7/1
f 54/1/1 34/1/1 53/1/1
f 55/7/1 35/7/1 54/7/1
f 56/7/1 39/7/1 38/7/1
f 57/5/1 40/5/1 39/5/1
f 57/7/1 39/7/1 56/7/1
f 57/5/1 41/5/1 40/5/1
f 58/5/1 41/5/1 57/5/1
f 59/6/1 42/6/1 41/6/1
f 59/5/1 41/5/1 58/5/1
f 60/6/1 51/6/1 50/6/1
f 60/5/1 53/5/1 52/5/1
f 60/5/1 52/5/1 51/5/1
f 61/5/1 53/5/1 60/5/1
f 62/7/1 54/7/1 53/7/1
f 62/5/1 53/5/1 61/5/1
f 63/7/1 54/7/1 62/7/1
f 64/7/1 58/7/1 57/7/1
f 65/1/1 59/1/1 58/1/1
f 65/7/1 58/7/1 64/7/1
f 66/1/1 59/1/1 65/1/1
f 67/6/1 42/6/1 59/6/1
f 67/1/1 59/1/1 66/1/1
f 68/8/1 43/8/1 42/8/1
f 68/6/1 42/6/1 67/6/1
f 69/9/1 44/9/1 43/9/1
f 69/8/1 43/8/1 68/8/1
f 70/8/1 45/8/1 44/8/1
f 70/9/1 44/9/1 69/9/1
f 71/9/1 46/9/1 45/9/1
f 71/8/1 45/8/1 70/8/1
f 72/8/1 47/8/1 46/8/1
f 72/9/1 46/9/1 71/9/1
f 73/9/1 48/9/1 47/9/1
f 73/8/1 47/8/1 72/8/1
f 74/8/1 49/8/1 48/8/1
f 74/9/1 48/9/1 73/9/1
f 75/9/1 50/9/1 49/9/1
f 75/8/1 49/8/1 74/8/1
f 76/6/1 60/6/1 50/6/1
f 76/9/1 50/9/1 75/9/1
f 77/1/1 61/1/1 60/1/1
f 77/6/1 60/6/1 76/6/1
f 78/1/1 61/1/1 77/1/1
f 79/1/1 61/1/1 78/1/1
f 80/7/1 62/7/1 61/7/1
f 80/1/1 61/1/1 79/1/1
f 81/7/1 62/7/1 80/7/1
f 82/7/1 66/7/1 65/7/1
f 83/5/1 67/5/1 66/5/1
f 83/7/1 66/7/1 82/7/1
f 84/5/1 67/5/1 83/5/1
f 85/6/1 68/6/1 67/6/1
f 85/5/1 67/5/1 84/5/1
f 86/5/1 79/5/1 78/5/1
f 86/2/1 78/2/1 77/2/1
f 87/7/1 80/7/1 79/7/1
f 87/5/1 79/5/1 86/5/1
f 88/7/1 80/7/1 87/7/1
f 89/7/1 84/7/1 83/7/1
f 90/1/1 85/1/1 84/1/1
f 90/7/1 84/7/1 89/7/1
f 91/6/1 68/6/1 85/6/1
f 91/1/1 85/1/1 90/1/1
f 92/9/1 69/9/1 68/9/1
f 92/6/1 68/6/1 91/6/1
f 93/8/1 70/8/1 69/8/1
f 93/9/1 69/9/1 92/9/1
f 94/9/1 71/9/1 70/9/1
f 94/8/1 70/8/1 93/8/1
f 95/8/1 72/8/1 71/8/1
f 95/9/1 71/9/1 94/9/1
f 96/9/1 73/9/1 72/9/1
f 96/8/1 72/8/1 95/8/1
f 97/8/1 74/8/1 73/8/1
f 97/9/1 73/9/1 96/9/1
f 98/9/1 75/9/1 74/9/1
f 98/8/1 74/8/1 97/8/1
f 99/8/1 76/8/1 75/8/1
f 99/9/1 75/9/1 98/9/1
f 100/6/1 77/6/1 76/6/1
f 100/8/1 76/8/1 99/8/1
f 101/2/1 86/2/1 77/2/1
f 101/6/1 77/6/1 100/6/1
f 102/7/1 87/7/1 86/7/1
f 102/2/1 86/2/1 101/2/1
f 103/7/1 87/7/1 102/7/1
f 104/7/1 96/7/1 95/7/1
f 104/7/1 98/7/1 97/7/1
f 104/7/1 102/7/1 101/7/1
f 104/7/1 101/7/1 100/7/1
f 104/7/1 99/7/1 98/7/1
f 104/7/1 100/7/1 99/7/1
f 104/7/1 97/7/1 96/7/1
f 104/7/1 95/7/1 94/7/1
f 104/7/1 94/7/1 93/7/1
f 104/7/1 93/7/1 92/7/1
f 104/7/1 92/7/1 91/7/1
f 104/7/1 91/7/1 90/7/1
f 105/7/1 102/7/1 104/7/1
f 110/3/1 107/3/1 106/3/1
f 111/3/1 107/3/1 110/3/1
f 112/3/1 109/3/1 108/3/1
f 113/3/1 109/3/1 112/3/1
f 118/3/1 115/3/1 114/3/1
f 119/3/1 115/3/1 118/3/1
f 122/3/1 117/3/1 116/3/1
f 123/3/1 117/3/1 122/3/1
f 124/3/1 120/3/1 119/3/1
f 125/3/1 120/3/1 124/3/1
f 128/3/1 122/3/1 121/3/1
f 129/3/1 122/3/1 128/3/1
f 130/3/1 126/3/1 125/3/1
f 131/3/1 126/3/1 130/3/1
f 132/3/1 128/3/1 127/3/1
f 133/3/1 128/3/1 132/3/1
f 134/3/1 132/3/1 131/3/1
f 135/3/1 132/3/1 134/3/1
f 136/3/1 132/3/1 135/3/1
f 137/3/1 132/3/1 136/3/1
f 138/3/1 132/3/1 137/3/1
f 139/3/1 132/3/1 138/3/1
f 140/3/1 132/3/1 139/3/1
f 141/3/1 132/3/1 140/3/1
f 142/3/1 132/3/1 141/3/1
f 143/3/1 132/3/1 142/3/1
f 144/3/1 132/3/1 143/3/1
f 145/3/1 132/3/1 144/3/1
f 146/3/1 132/3/1 145/3/1
f 151/7/1 148/7/1 147/7/1
f 152/7/1 148/7/1 151/7/1
f 153/7/1 150/7/1 149/7/1
f 154/7/1 150/7/1 153/7/1
f 155/7/2 156/7/2 159/7/2
f 159/7/2 156/7/2 160/7/2
f 157/7/2 158/7/2 161/7/2
f 161/7/2 158/7/2 162/7/2
f 163/3/2 164/3/2 167/3/2
f 167/3/2 164/3/2 168/3/2
f 165/3/2 166/3/2 169/3/2
f 169/3/2 166/3/2 170/3/2
f 171/3/2 172/3/2 175/3/2
f 175/3/2 172/3/2 176/3/2
f 173/3/2 174/3/2 179/3/2
f 179/3/2 174/3/2 180/3/2
f 176/3/2 177/3/2 181/3/2
f 181/3/2 177/3/2 182/3/2
f 178/3/2 179/3/2 185/3/2
f 185/3/2 179/3/2 186/3/2
f 182/3/2 183/3/2 187/3/2
f 187/3/2 183/3/2 188/3/2
f 184/3/2 185/3/2 189/3/2
f 189/3/2 185/3/2 190/3/2
f 188/3/2 189/3/2 191/3/2
f 191/3/2 189/3/2 192/3/2
f 192/3/2 189/3/2 193/3/2
f 193/3/2 189/3/2 194/3/2
f 194/3/2 189/3/2 195/3/2
f 195/3/2 189/3/2 196/3/2
f 196/3/2 189/3/2 197/3/2
f 197/3/2 189/3/2 198/3/2
f 198/3/2 189/3/2 199/3/2
f 199/3/2 189/3/2 200/3/2
f 200/3/2 189/3/2 201/3/2
f 201/3/2 189/3/2 202/3/2
f 202/3/2 189/3/2 203/3/2
f 204/7/2 205/7/2 208/7/2
f 208/7/2 205/7/2 209/7/2
f 206/7/2 207/7/2 210/7/2
f 210/7/2 207/7/2 211/7/2
f 208/5/2 209/5/2 212/5/2
f 212/5/2 209/5/2 213/5/2
f 210/5/2 211/5/2 214/5/2
f 214/5/2 211/5/2 215/5/2
f 208/5/2 212/5/2 216/5/2
f 212/4/2 213/4/2 216/4/2
f 213/5/2 209/5/2 217/5/2
f 216/4/2 213/4/2 217/4/2
f 214/4/2 215/4/2 218/4/2
f 210/5/2 214/5/2 218/5/2
f 215/5/2 211/5/2 219/5/2
f 218/4/2 215/4/2 219/4/2
f 204/7/2 208/7/2 220/7/2
f 208/5/2 216/5/2 220/5/2
f 216/5/2 217/5/2 220/5/2
f 209/7/2 205/7/2 221/7/2
f 220/5/2 217/5/2 221/5/2
f 217/5/2 209/5/2 221/5/2
f 206/7/2 210/7/2 222/7/2
f 218/5/2 219/5/2 222/5/2
f 210/5/2 218/5/2 222/5/2
f 219/5/2 211/5/2 223/5/2
f 222/5/2 219/5/2 223/5/2
f 211/7/2 207/7/2 223/7/2
f 220/7/2 221/7/2 224/7/2
f 221/7/2 205/7/2 224/7/2
f 206/7/2 222/7/2 227/7/2
f 222/7/2 223/7/2 227/7/2
f 204/7/2 220/7/2 228/7/2
f 224/7/2 225/7/2 228/7/2
f 220/7/2 224/7/2 228/7/2
f 228/7/2 225/7/2 229/7/2
f 229/7/2 225/7/2 230/7/2
f 230/7/2 225/7/2 231/7/2
f 226/7/2 227/7/2 234/7/2
f 227/7/2 223/7/2 235/7/2
f 234/7/2 227/7/2 235/7/2
f 223/7/2 207/7/2 236/7/2
f 235/7/2 223/7/2 236/7/2
f 236/7/2 207/7/2 237/7/2
f 229/7/2 230/7/2 238/7/2
f 230/5/2 231/5/2 239/5/2
f 238/7/2 230/7/2 239/7/2
f 239/5/2 231/5/2 240/5/2
f 231/7/2 232/7/2 241/7/2
f 240/5/2 231/5/2 241/5/2
f 241/7/2 232/7/2 242/7/2
f 233/7/2 234/7/2 243/7/2
f 234/5/2 235/5/2 244/5/2
f 243/7/2 234/7/2 244/7/2
f 244/5/2 235/5/2 245/5/2
f 235/7/2 236/7/2 246/7/2
f 245/5/2 235/5/2 246/5/2
f 246/7/2 236/7/2 247/7/2
f 239/7/2 240/7/2 248/7/2
f 241/1/2 242/1/2 249/1/2
f 248/7/2 240/7/2 249/7/2
f 240/1/2 241/1/2 249/1/2
f 249/1/2 242/1/2 250/1/2
f 242/7/2 243/7/2 251/7/2
f 250/1/2 242/1/2 251/1/2
f 251/7/2 243/7/2 252/7/2
f 252/7/2 243/7/2 253/7/2
f 253/7/2 243/7/2 254/7/2
f 254/7/2 243/7/2 255/7/2
f 255/7/2 243/7/2 256/7/2
f 256/7/2 243/7/2 257/7/2
f 257/7/2 243/7/2 258/7/2
f 258/7/2 243/7/2 259/7/2
f 259/7/2 243/7/2 260/7/2
f 260/7/2 243/7/2 261/7/2
f 261/7/2 243/7/2 262/7/2
f 244/1/2 245/1/2 263/1/2
f 262/7/2 243/7/2 263/7/2
f 243/1/2 244/1/2 263/1/2
f 263/1/2 245/1/2 264/1/2
f 245/7/2 246/7/2 265/7/2
f 264/1/2 245/1/2 265/1/2
f 265/7/2 246/7/2 266/7/2
f 249/7/2 250/7/2 267/7/2
f 250/5/2 251/5/2 268/5/2
f 267/7/2 250/7/2 268/7/2
f 251/5/2 252/5/2 268/5/2
f 268/5/2 252/5/2 269/5/2
f 252/6/2 253/6/2 270/6/2
f 269/5/2 252/5/2 270/5/2
f 261/6/2 262/6/2 271/6/2
f 263/5/2 264/5/2 271/5/2
f 262/5/2 263/5/2 271/5/2
f 271/5/2 264/5/2 272/5/2
f 264/7/2 265/7/2 273/7/2
f 272/5/2 264/5/2 273/5/2
f 273/7/2 265/7/2 274/7/2
f 268/7/2 269/7/2 275/7/2
f 269/1/2 270/1/2 276/1/2
f 275/7/2 269/7/2 276/7/2
f 276/1/2 270/1/2 277/1/2
f 270/6/2 253/6/2 278/6/2
f 277/1/2 270/1/2 278/1/2
f 253/8/2 254/8/2 279/8/2
f 278/6/2 253/6/2 279/6/2
f 254/9/2 255/9/2 280/9/2
f 279/8/2 254/8/2 280/8/2
f 255/8/2 256/8/2 281/8/2
f 280/9/2 255/9/2 281/9/2
f 256/9/2 257/9/2 282/9/2
f 281/8/2 256/8/2 282/8/2
f 257/8/2 258/8/2 283/8/2
f 282/9/2 257/9/2 283/9/2
f 258/9/2 259/9/2 284/9/2
f 283/8/2 258/8/2 284/8/2
f 259/8/2 260/8/2 285/8/2
f 284/9/2 259/9/2 285/9/2
f 260/9/2 261/9/2 286/9/2
f 285/8/2 260/8/2 286/8/2
f 261/6/2 271/6/2 287/6/2
f 286/9/2 261/9/2 287/9/2
f 271/1/2 272/1/2 288/1/2
f 287/6/2 271/6/2 288/6/2
f 288/1/2 272/1/2 289/1/2
f 289/1/2 272/1/2 290/1/2
f 272/7/2 273/7/2 291/7/2
f 290/1/2 272/1/2 291/1/2
f 291/7/2 273/7/2 292/7/2
f 276/7/2 277/7/2 293/7/2
f 277/5/2 278/5/2 294/5/2
f 293/7/2 277/7/2 294/7/2
f 294/5/2 278/5/2 295/5/2
f 278/6/2 279/6/2 296/6/2
f 295/5/2 278/5/2 296/5/2
f 289/5/2 290/5/2 297/5/2
f 288/2/2 289/2/2 297/2/2
f 290/7/2 291/7/2 298/7/2
f 297/5/2 290/5/2 298/5/2
f 298/7/2 291/7/2 299/7/2
f 294/7/2 295/7/2 300/7/2
f 295/1/2 296/1/2 301/1/2
f 300/7/2 295/7/2 301/7/2
f 296/6/2 279/6/2 302/6/2
f 301/1/2 296/1/2 302/1/2
f 279/9/2 280/9/2 303/9/2
f 302/6/2 279/6/2 303/6/2
f 280/8/2 281/8/2 304/8/2
f 303/9/2 280/9/2 304/9/2
f 281/9/2 282/9/2 305/9/2
f 304/8/2 281/8/2 305/8/2
f 282/8/2 283/8/2 306/8/2
f 305/9/2 282/9/2 306/9/2
f 283/9/2 284/9/2 307/9/2
f 306/8/2 283/8/2 307/8/2
f 284/8/2 285/8/2 308/8/2
f 307/9/2 284/9/2 308/9/2
f 285/9/2 286/9/2 309/9/2
f 308/8/2 285/8/2 309/8/2
f 286/8/2 287/8/2 310/8/2
f 309/9/2 286/9/2 310/9/2
f 287/6/2 288/6/2 311/6/2
f 310/8/2 287/8/2 311/8/2
f 288/2/2 297/2/2 312/2/2
f 311/6/2 288/6/2 312/6/2
f 297/7/2 298/7/2 313/7/2
f 312/2/2 297/2/2 313/2/2
f 313/7/2 298/7/2 314/7/2
f 306/7/2 307/7/2 315/7/2
f 308/7/2 309/7/2 315/7/2
f 312/7/2 313/7/2 315/7/2
f 311/7/2 312/7/2 315/7/2
f 309/7/2 310/7/2 315/7/2
f 310/7/2 311/7/2 315/7/2
f 307/7/2 308/7/2 315/7/2
f 305/7/2 306/7/2 315/7/2
f 304/7/2 305/7/2 315/7/2
f 303/7/2 304/7/2 315/7/2
f 302/7/2 303/7/2 315/7/2
f 301/7/2 302/7/2 315/7/2
f 315/7/2 313/7/2 316/7/2
f 319/7/3 318/7/3 317/7/3
f 320/7/3 318/7/3 319/7/3
f 321/5/3 320/5/3 319/5/3
f 322/5/3 320/5/3 321/5/3
f 323/5/3 321/5/3 319/5/3
f 323/4/3 322/4/3 321/4/3
f 324/5/3 320/5/3 322/5/3
f 324/4/3 322/4/3 323/4/3
f 325/7/3 319/7/3 317/7/3
f 325/5/3 323/5/3 319/5/3
f 325/5/3 324/5/3 323/5/3
f 326/5/3 320/5/3 324/5/3
f 326/5/3 324/5/3 325/5/3
f 326/7/3 318/7/3 320/7/3
f 327/7/3 325/7/3 317/7/3
f 327/7/3 326/7/3 325/7/3
f 328/7/3 318/7/3 326/7/3
f 328/7/3 326/7/3 327/7/3
f 331/7/3 330/7/3 329/7/3
f 332/7/3 330/7/3 331/7/3
f 335/7/3 334/7/3 333/7/3
f 336/7/3 334/7/3 335/7/3
f 341/3/3 340/3/3 339/3/3
f 342/3/3 340/3/3 341/3/3
f 343/7/3 338/7/3 337/7/3
f 344/7/3 338/7/3 343/7/3
f 349/7/3 348/7/3 347/7/3
f 350/7/3 348/7/3 349/7/3
f 351/7/3 346/7/3 345/7/3
f 352/7/3 346/7/3 351/7/3
f 355/7/3 354/7/3 353/7/3
f 356/7/3 354/7/3 355/7/3
f 361/3/3 360/3/3 359/3/3
f 362/3/3 360/3/3 361/3/3
f 363/7/3 358/7/3 357/7/3
f 364/7/3 358/7/3 363/7/3
f 369/3/3 368/3/3 367/3/3
f 370/3/3 368/3/3 369/3/3
f 371/7/3 366/7/3 365/7/3
f 372/7/3 366/7/3 371/7/3
f 375/3/3 374/3/3 373/3/3
f 376/3/3 374/3/3 375/3/3
f 381/3/3 380/3/3 379/3/3
f 382/3/3 380/3/3 381/3/3
f 383/7/3 378/7/3 377/7/3
f 384/7/3 378/7/3 383/7/3
f 389/3/3 388/3/3 387/3/3
f 390/3/3 388/3/3 389/3/3
f 391/7/3 386/7/3 385/7/3
f 392/7/3 386/7/3 391/7/3
f 395/3/3 394/3/3 393/3/3
f 396/3/3 394/3/3 395/3/3
f 399/7/3 398/7/3 397/7/3
f 400/7/3 398/7/3 399/7/3
f 403/3/3 402/3/3 401/3/3
f 404/3/3 402/3/3 403/3/3
f 405/7/3 399/7/3 397/7/3
f 405/4/3 400/4/3 399/4/3
f 406/7/3 398/7/3 400/7/3
f 406/4/3 400/4/3 405/4/3
f 407/7/3 405/7/3 397/7/3
f 407/7/3 406/7/3 405/7/3
f 408/7/3 398/7/3 406/7/3
f 408/7/3 406/7/3 407/7/3
f 411/3/3 410/3/3 409/3/3
f 412/3/3 410/3/3 411/3/3
f 415/7/3 414/7/3 413/7/3
f 416/7/3 414/7/3 415/7/3
f 417/7/4 418/7/4 419/7/4
f 419/7/4 418/7/4 420/7/4
f 421/3/4 422/3/4 423/3/4
f 423/3/4 422/3/4 424/3/4
f 425/7/4 426/7/4 427/7/4
f 427/7/4 426/7/4 428/7/4
f 429/3/4 430/3/4 431/3/4
f 431/3/4 430/3/4 432/3/4
f 425/7/4 427/7/4 433/7/4
f 427/4/4 428/4/4 433/4/4
f 428/7/4 426/7/4 434/7/4
f 433/4/4 428/4/4 434/4/4
f 425/7/4 433/7/4 435/7/4
f 433/7/4 434/7/4 435/7/4
f 434/7/4 426/7/4 436/7/4
f 435/7/4 434/7/4 436/7/4
f 437/3/4 438/3/4 439/3/4
f 439/3/4 438/3/4 440/3/4
f 443/3/4 444/3/4 445/3/4
f 445/3/4 444/3/4 446/3/4
f 441/7/4 442/7/4 447/7/4
f 447/7/4 442/7/4 448/7/4
f 451/3/4 452/3/4 453/3/4
f 453/3/4 452/3/4 454/3/4
f 449/7/4 450/7/4 455/7/4
f 455/7/4 450/7/4 456/7/4
f 457/3/4 458/3/4 459/3/4
f 459/3/4 458/3/4 460/3/4
f 463/3/4 464/3/4 465/3/4
f 465/3/4 464/3/4 466/3/4
f 461/7/4 462/7/4 467/7/4
f 467/7/4 462/7/4 468/7/4
f 471/3/4 472/3/4 473/3/4
f 473/3/4 472/3/4 474/3/4
f 469/7/4 470/7/4 475/7/4
f 475/7/4 470/7/4 476/7/4
f 477/7/4 478/7/4 479/7/4
f 479/7/4 478/7/4 480/7/4
f 483/7/4 484/7/4 485/7/4
f 485/7/4 484/7/4 486/7/4
f 481/7/4 482/7/4 487/7/4
f 487/7/4 482/7/4 488/7/4
f 491/3/4 492/3/4 493/3/4
f 493/3/4 492/3/4 494/3/4
f 489/7/4 490/7/4 495/7/4
f 495/7/4 490/7/4 496/7/4
f 497/7/4 498/7/4 499/7/4
f 499/7/4 498/7/4 500/7/4
f 501/7/4 502/7/4 503/7/4
f 503/7/4 502/7/4 504/7/4
f 505/7/4 506/7/4 507/7/4
f 507/7/4 506/7/4 508/7/4
f 507/5/4 508/5/4 509/5/4
f 509/5/4 508/5/4 510/5/4
f 507/5/4 509/5/4 511/5/4
f 509/4/4 510/4/4 511/4/4
f 510/5/4 508/5/4 512/5/4
f 511/4/4 510/4/4 512/4/4
f 505/7/4 507/7/4 513/7/4
f 507/5/4 511/5/4 513/5/4
f 511/5/4 512/5/4 513/5/4
f 512/5/4 508/5/4 514/5/4
f 513/5/4 512/5/4 514/5/4
f 508/7/4 506/7/4 514/7/4
f 505/7/4 513/7/4 515/7/4
f 513/7/4 514/7/4 515/7/4
f 514/7/4 506/7/4 516/7/4
f 515/7/4 514/7/4 516/7/4
f 519/7/5 518/7/5 517/7/5
f 520/7/5 518/7/5 519/7/5
f 521/7/5 519/7/5 517/7/5
f 522/7/5 518/7/5 520/7/5
f 523/7/5 521/7/5 517/7/5
f 523/7/5 522/7/5 521/7/5
f 524/7/5 518/7/5 522/7/5
f 524/7/5 522/7/5 523/7/5
f 527/7/5 526/7/5 525/7/5
f 528/7/5 526/7/5 527/7/5
f 529/7/5 527/7/5 525/7/5
f 530/7/5 526/7/5 528/7/5
f 531/7/5 529/7/5 525/7/5
f 531/7/5 530/7/5 529/7/5
f 532/7/5 526/7/5 530/7/5
f 532/7/5 530/7/5 531/7/5
f 535/3/5 534/3/5 533/3/5
f 536/3/5 534/3/5 535/3/5
f 537/3/5 535/3/5 533/3/5
f 538/3/5 534/3/5 536/3/5
f 539/3/5 537/3/5 533/3/5
f 539/3/5 538/3/5 537/3/5
f 540/3/5 534/3/5 538/3/5
f 540/3/5 538/3/5 539/3/5
f 543/3/5 542/3/5 541/3/5
f 544/3/5 542/3/5 543/3/5
f 545/3/5 543/3/5 541/3/5
f 546/3/5 542/3/5 544/3/5
f 547/3/5 545/3/5 541/3/5
f 547/3/5 546/3/5 545/3/5
f 548/3/5 542/3/5 546/3/5
f 548/3/5 546/3/5 547/3/5
f 551/3/5 550/3/5 549/3/5
f 552/3/5 550/3/5 551/3/5
f 555/3/5 554/3/5 553/3/5
f 556/3/5 554/3/5 555/3/5
f 559/7/5 558/7/5 557/7/5
f 560/7/5 558/7/5 559/7/5
f 563/7/5 562/7/5 561/7/5
f 564/7/5 562/7/5 563/7/5
f 567/7/5 566/7/5 565/7/5
f 568/7/5 566/7/5 567/7/5
f 571/7/5 570/7/5 569/7/5
f 572/7/5 570/7/5 571/7/5
f 575/7/5 574/7/5 573/7/5
f 576/7/5 574/7/5 575/7/5
f 579/3/5 578/3/5 577/3/5
f 580/3/5 578/3/5 579/3/5
f 583/3/5 582/3/5 581/3/5
f 584/3/5 582/3/5 583/3/5
f 587/3/5 586/3/5 585/3/5
f 588/3/5 586/3/5 587/3/5
f 591/3/5 590/3/5 589/3/5
f 592/3/5 590/3/5 591/3/5
f 595/3/5 594/3/5 593/3/5
f 596/3/5 594/3/5 595/3/5
f 599/3/5 598/3/5 597/3/5
f 600/3/5 598/3/5 599/3/5
f 603/1/5 602/1/5 601/1/5
f 604/1/5 602/1/5 603/1/5
f 605/6/5 604/6/5 603/6/5
f 606/6/5 604/6/5 605/6/5
f 607/8/5 606/8/5 605/8/5
f 608/8/5 606/8/5 607/8/5
f 609/9/5 608/9/5 607/9/5
f 610/9/5 608/9/5 609/9/5
f 611/8/5 610/8/5 609/8/5
f 612/8/5 610/8/5 611/8/5
f 613/9/5 612/9/5 611/9/5
f 614/9/5 612/9/5 613/9/5
f 615/8/5 614/8/5 613/8/5
f 616/8/5 614/8/5 615/8/5
f 617/9/5 616/9/5 615/9/5
f 618/9/5 616/9/5 617/9/5
f 619/8/5 618/8/5 617/8/5
f 620/8/5 618/8/5 619/8/5
f 621/9/5 620/9/5 619/9/5
f 622/9/5 620/9/5 621/9/5
f 623/6/5 622/6/5 621/6/5
f 624/6/5 622/6/5 623/6/5
f 625/2/5 624/2/5 623/2/5
f 626/2/5 624/2/5 625/2/5
f 627/7/6 628/7/6 629/7/6
f 629/7/6 628/7/6 630/7/6
f 631/7/6 632/7/6 633/7/6
f 633/7/6 632/7/6 634/7/6
f 635/7/6 636/7/6 637/7/6
f 637/7/6 636/7/6 638/7/6
f 639/3/6 640/3/6 641/3/6
f 641/3/6 640/3/6 642/3/6
f 643/3/6 644/3/6 645/3/6
f 645/3/6 644/3/6 646/3/6
f 647/7/6 648/7/6 649/7/6
f 649/7/6 648/7/6 650/7/6
f 651/7/6 652/7/6 653/7/6
f 653/7/6 652/7/6 654/7/6
f 655/3/6 656/3/6 657/3/6
f 657/3/6 656/3/6 658/3/6
f 659/3/6 660/3/6 661/3/6
f 661/3/6 660/3/6 662/3/6
f 663/7/6 664/7/6 665/7/6
f 665/7/6 664/7/6 666/7/6
f 667/7/6 668/7/6 669/7/6
f 669/7/6 668/7/6 670/7/6
f 671/3/6 672/3/6 673/3/6
f 673/3/6 672/3/6 674/3/6
f 675/3/6 676/3/6 677/3/6
f 677/3/6 676/3/6 678/3/6
f 679/7/6 680/7/6 681/7/6
f 681/7/6 680/7/6 682/7/6
f 683/7/6 684/7/6 685/7/6
f 685/7/6 684/7/6 686/7/6
f 687/3/6 688/3/6 689/3/6
f 689/3/6 688/3/6 690/3/6
f 691/7/6 692/7/6 693/7/6
f 693/7/6 692/7/6 694/7/6
f 695/7/6 696/7/6 697/7/6
f 697/7/6 696/7/6 698/7/6
f 699/7/6 700/7/6 701/7/6
f 701/7/6 700/7/6 702/7/6
f 703/7/6 704/7/6 705/7/6
f 705/7/6 704/7/6 706/7/6
f 707/7/6 708/7/6 709/7/6
f 709/7/6 708/7/6 710/7/6
f 711/7/6 712/7/6 713/7/6
f 713/7/6 712/7/6 714/7/6
